#!OML:ASF F:\VICON\USERDATA\INSTALL\rory3\rory3.ASF
:FULLY-SPECIFIED
:DEGREES
162
root 3.00225 17.4306 -1.10512 9.49926 -48.1941 6.52109
lowerback -9.02002 1.27295 -2.07659
upperback -8.69182 1.60974 -0.154216
thorax -4.05768 0.827756 1.092
lowerneck -4.54514 16.4632 10.4589
upperneck 18.1996 21.5666 -0.722984
head 7.57266 10.981 0.0896153
rclavicle 4.80065e-014 3.89618e-014
rhumerus 16.0827 -31.4023 1.49729
rradius 127.809
rwrist -58.5735
rhand -5.67935 -45.2995
rfingers 7.12502
rthumb 20.1406 -74.2755
lclavicle 4.80065e-014 3.89618e-014
lhumerus 26.316 10.7081 -16.2896
lradius 33.7536
lwrist 40.8321
lhand -27.7884 -23.5645
lfingers 7.12502
lthumb -1.18153 6.41198
rfemur -9.02462 3.25679 2.75864
rtibia 20.4027
rfoot -15.9466 -28.213
rtoes -11.239
lfemur -20.1844 -5.15096 -13.7965
ltibia 10.3418
lfoot -1.52143 26.0267
ltoes 6.02637
163
root 2.99573 17.425 -1.13269 9.68996 -48.1588 6.23204
lowerback -8.94317 1.26282 -1.91883
upperback -8.70546 1.58792 -0.081192
thorax -4.11044 0.811538 1.07657
lowerneck -4.47633 16.4489 10.5372
upperneck 18.254 21.5848 -0.912718
head 7.61099 10.9799 0.0250955
rclavicle -2.99171e-014 4.77083e-015
rhumerus 16.2398 -31.3419 1.30001
rradius 127.862
rwrist -58.5048
rhand -5.92063 -45.1586
rfingers 7.12502
rthumb 19.9087 -74.1589
lclavicle -2.99171e-014 4.77083e-015
lhumerus 26.1893 10.3982 -16.4357
lradius 33.8297
lwrist 40.9598
lhand -28.2822 -23.3328
lfingers 7.12502
lthumb -1.65846 6.64047
rfemur -9.00993 3.31935 3.07184
rtibia 20.3798
rfoot -17.0688 -27.9438
rtoes -9.09512
lfemur -20.2724 -4.94599 -13.5685
ltibia 10.5362
lfoot -1.24555 25.8289
ltoes 7.05682
164
root 2.98788 17.4204 -1.15758 9.8074 -48.0559 6.01043
lowerback -8.95453 1.2946 -1.78474
upperback -8.61258 1.62773 -0.0888481
thorax -4.0013 0.824438 0.997192
lowerneck -4.63518 16.3938 10.6623
upperneck 18.2507 21.5051 -1.05327
head 7.66253 10.9343 -0.0241005
rclavicle 9.54166e-015 1.19271e-014
rhumerus 16.0506 -31.5283 1.33229
rradius 127.957
rwrist -58.6103
rhand -6.33941 -45.3707
rfingers 7.12502
rthumb 19.5061 -74.4122
lclavicle 9.54166e-015 1.19271e-014
lhumerus 26.4491 10.8351 -16.0069
lradius 33.7339
lwrist 40.4166
lhand -28.1993 -23.1373
lfingers 7.12502
lthumb -1.57839 6.83656
rfemur -8.9923 3.15119 3.365
rtibia 20.4405
rfoot -17.3178 -28.0598
rtoes -8.71326
lfemur -20.3462 -4.73159 -13.3878
ltibia 10.7151
lfoot -1.24861 25.5738
ltoes 5.27287
165
root 2.97484 17.4175 -1.16051 9.64429 -48.08 6.16874
lowerback -9.38326 1.3494 -1.62633
upperback -8.35003 1.70412 -0.250812
thorax -3.47761 0.847021 0.759139
lowerneck -5.04733 16.424 10.7849
upperneck 18.3752 21.5063 -1.1181
head 7.79531 10.9271 -0.0113197
rclavicle -1.49138e-013 -1.31198e-014
rhumerus 15.9257 -31.8705 1.25042
rradius 127.949
rwrist -58.8642
rhand -6.59471 -45.7518
rfingers 7.12502
rthumb 19.2606 -74.818
lclavicle -1.49138e-013 -1.31198e-014
lhumerus 26.5831 11.2273 -15.8105
lradius 33.6715
lwrist 40.0322
lhand -28.2044 -23.6256
lfingers 7.12502
lthumb -1.5833 6.34828
rfemur -8.9689 2.73281 3.28388
rtibia 20.5849
rfoot -17.3375 -27.8655
rtoes -8.62815
lfemur -20.304 -4.62284 -13.5118
ltibia 10.8313
lfoot -1.34049 25.438
ltoes 6.86008
166
root 2.97339 17.411 -1.19736 9.46716 -48.0138 6.31619
lowerback -9.25754 1.35244 -1.74404
upperback -8.25864 1.71764 -0.295816
thorax -3.45251 0.859316 0.77733
lowerneck -5.48096 16.4774 10.9014
upperneck 18.7288 21.5334 -1.11387
head 8.00225 10.936 0.0395222
rclavicle -5.80451e-014 6.36111e-015
rhumerus 15.8728 -31.9516 1.25643
rradius 127.928
rwrist -58.9101
rhand -6.77379 -45.794
rfingers 7.12502
rthumb 19.0884 -74.8773
lclavicle -5.80451e-014 6.36111e-015
lhumerus 26.6399 11.2761 -15.6693
lradius 33.6707
lwrist 39.9203
lhand -28.3306 -23.8684
lfingers 7.12502
lthumb -1.70516 6.10452
rfemur -8.98183 3.12957 3.25469
rtibia 20.762
rfoot -19.6348 -27.0578
rtoes -3.74688
lfemur -20.4008 -4.27694 -13.607
ltibia 10.8933
lfoot -0.657313 24.985
ltoes 3.67196
167
root 2.96777 17.4059 -1.22843 9.3268 -47.9199 6.3935
lowerback -9.05495 1.41881 -1.92955
upperback -8.24377 1.81594 -0.292443
thorax -3.5578 0.919621 0.885022
lowerneck -5.78835 16.4732 11.0591
upperneck 19.0181 21.4731 -1.04787
head 8.15974 10.9148 0.0779733
rclavicle 4.18939e-014 5.1684e-015
rhumerus 15.6777 -31.8678 1.47772
rradius 127.911
rwrist -58.6179
rhand -6.43214 -45.4844
rfingers 7.12502
rthumb 19.4169 -74.5349
lclavicle 4.18939e-014 5.1684e-015
lhumerus 26.9412 11.3408 -15.194
lradius 33.6125
lwrist 39.7496
lhand -28.0756 -23.6117
lfingers 7.12502
lthumb -1.45895 6.36309
rfemur -9.09302 2.85288 3.37938
rtibia 20.9491
rfoot -18.2979 -27.8676
rtoes -6.42567
lfemur -20.3947 -4.18067 -13.6172
ltibia 10.914
lfoot -0.364086 24.8822
ltoes 4.94497
168
root 2.96006 17.3982 -1.25679 9.30163 -47.8596 6.3185
lowerback -9.00432 1.26279 -1.81241
upperback -8.4103 1.59728 -0.078329
thorax -3.75861 0.810636 1.02589
lowerneck -4.67297 16.4081 10.1686
upperneck 18.8146 21.538 -0.753221
head 7.76751 10.9422 0.152535
rclavicle 2.18663e-015 -2.06736e-014
rhumerus 16.5273 -31.4143 0.915607
rradius 127.863
rwrist -58.3643
rhand -5.6544 -45.3361
rfingers 7.12502
rthumb 20.1645 -74.3095
lclavicle 2.18663e-015 -2.06736e-014
lhumerus 26.4115 10.7227 -15.177
lradius 33.6141
lwrist 39.68
lhand -26.9886 -22.9448
lfingers 7.12502
lthumb -0.409103 7.03452
rfemur -9.1865 2.67734 3.56473
rtibia 21.1923
rfoot -18.5076 -27.8787
rtoes -5.98426
lfemur -20.3305 -4.37798 -13.412
ltibia 10.8589
lfoot -0.568824 25.1121
ltoes 3.53126
169
root 2.9551 17.3913 -1.28447 9.26141 -47.8632 6.23571
lowerback -8.83156 1.5284 -1.80365
upperback -8.22301 1.9509 -0.408121
thorax -3.65322 0.979777 0.696379
lowerneck -5.89465 16.2482 10.7658
upperneck 19.4147 21.1088 -0.615365
head 8.20795 10.7583 0.219968
rclavicle -5.71009e-014 -3.10104e-014
rhumerus 15.4345 -31.705 1.31748
rradius 127.883
rwrist -58.3672
rhand -5.38402 -45.2781
rfingers 7.12502
rthumb 20.4244 -74.224
lclavicle -5.71009e-014 -3.10104e-014
lhumerus 27.4178 11.3779 -14.7344
lradius 33.4061
lwrist 39.3011
lhand -26.0026 -22.3521
lfingers 7.12502
lthumb 0.543275 7.62695
rfemur -9.27212 2.61463 3.73994
rtibia 21.3655
rfoot -18.5703 -27.9619
rtoes -6.17306
lfemur -20.2538 -4.47272 -13.2225
ltibia 10.8032
lfoot -0.663118 25.2143
ltoes 5.76649
170
root 2.94908 17.3869 -1.30606 9.15649 -47.856 6.28372
lowerback -8.81721 1.4632 -1.79388
upperback -8.23129 1.86418 -0.339427
thorax -3.66965 0.937725 0.756998
lowerneck -5.87363 16.302 10.8131
upperneck 19.7003 21.2109 -0.706323
head 8.32309 10.8004 0.214264
rclavicle -2.10215e-014 -2.10712e-014
rhumerus 15.8498 -31.6102 0.9807
rradius 127.849
rwrist -58.5563
rhand -5.17979 -45.0959
rfingers 7.12502
rthumb 20.6207 -74.0205
lclavicle -2.10215e-014 -2.10712e-014
lhumerus 27.0185 10.7844 -15.0287
lradius 33.4549
lwrist 39.4773
lhand -26.2514 -22.8515
lfingers 7.12502
lthumb 0.302921 7.12804
rfemur -9.31306 2.4477 3.79365
rtibia 21.4891
rfoot -18.2409 -28.1371
rtoes -7.22466
lfemur -20.195 -4.64514 -13.1484
ltibia 10.7859
lfoot -0.6107 25.379
ltoes 3.80457
171
root 2.93985 17.3837 -1.32699 9.17339 -47.8105 6.30102
lowerback -9.03601 1.31678 -1.70779
upperback -8.27828 1.66738 -0.188733
thorax -3.59569 0.837276 0.859383
lowerneck -5.14197 16.3255 10.4772
upperneck 19.4511 21.3798 -0.8324
head 8.09785 10.8651 0.153922
rclavicle -2.48481e-014 -1.90833e-014
rhumerus 16.5717 -31.4634 0.538588
rradius 127.85
rwrist -58.7541
rhand -5.16265 -45.2053
rfingers 7.12502
rthumb 20.6371 -74.1282
lclavicle -2.48481e-014 -1.90833e-014
lhumerus 26.3597 9.96593 -15.4765
lradius 33.5896
lwrist 39.8442
lhand -26.6662 -23.3843
lfingers 7.12502
lthumb -0.0977313 6.59547
rfemur -9.40247 2.27664 3.86049
rtibia 21.6247
rfoot -18.6038 -27.9407
rtoes -6.48778
lfemur -20.2085 -4.80497 -13.0418
ltibia 10.7157
lfoot -0.690239 25.5459
ltoes 5.63453
